<svg xmlns="http://www.w3.org/2000/svg" viewBox="0 0 64 64">
  <rect width="64" height="64" rx="12" fill="#ffffff" />
  <g fill="none" stroke="#00338d" stroke-width="2" stroke-linecap="round" stroke-linejoin="round">
    <path d="M16 26 L32 18 L48 26 L32 34 Z" fill="#00338d" />
    <path d="M32 34 L32 44" />
    <path d="M20 30 L25 36 L20 42" />
    <path d="M44 30 L39 36 L44 42" />
  </g>
  <circle cx="32" cy="44" r="12" fill="#00338d" opacity="0.08" />
  <path d="M24 52 C24 39, 40 39, 40 52" fill="none" stroke="#00338d" stroke-width="2" />
  <path d="M28 32 C28 28, 36 28, 36 32" fill="none" stroke="#00338d" stroke-width="2" />
  <path d="M32 32 L32 44" fill="none" stroke="#00338d" stroke-width="2" />
  <g fill="none" stroke="#00338d" stroke-width="1.6">
    <path d="M24 44 C24 44, 28 38, 32 38 C36 38, 40 44, 40 44" />
    <path d="M32 32 C30 36, 26 38, 24 44" />
    <path d="M32 32 C34 36, 38 38, 40 44" />
  </g>
  <path d="M12 30 L52 22 L32 14 L12 22 Z" fill="#00338d" />
  <path d="M32 14 L32 34" stroke="#00338d" stroke-width="2" />
</svg>